<svg width="168" height="178" viewBox="0 0 168 178" fill="none" xmlns="http://www.w3.org/2000/svg">
<g filter="url(#filter0_d_914_686)">
<circle cx="79" cy="69" r="39" fill="white"/>
</g>
<path fill-rule="evenodd" clip-rule="evenodd" d="M71.8661 61.8661C72.3543 61.378 73.1457 61.378 73.6339 61.8661L79 67.2322L84.3661 61.8661C84.8543 61.378 85.6457 61.378 86.1339 61.8661C86.622 62.3543 86.622 63.1457 86.1339 63.6339L80.7678 69L86.1339 74.3661C86.622 74.8543 86.622 75.6457 86.1339 76.1339C85.6457 76.622 84.8543 76.622 84.3661 76.1339L79 70.7678L73.6339 76.1339C73.1457 76.622 72.3543 76.622 71.8661 76.1339C71.378 75.6457 71.378 74.8543 71.8661 74.3661L77.2322 69L71.8661 63.6339C71.378 63.1457 71.378 62.3543 71.8661 61.8661Z" fill="#F27121" stroke="#F27121" stroke-width="2" stroke-linecap="round" stroke-linejoin="round"/>
<defs>
<filter id="filter0_d_914_686" x="-10" y="0" width="178" height="178" filterUnits="userSpaceOnUse" color-interpolation-filters="sRGB">
<feFlood flood-opacity="0" result="BackgroundImageFix"/>
<feColorMatrix in="SourceAlpha" type="matrix" values="0 0 0 0 0 0 0 0 0 0 0 0 0 0 0 0 0 0 127 0" result="hardAlpha"/>
<feOffset dy="20"/>
<feGaussianBlur stdDeviation="25"/>
<feColorMatrix type="matrix" values="0 0 0 0 0 0 0 0 0 0 0 0 0 0 0 0 0 0 0.07 0"/>
<feBlend mode="normal" in2="BackgroundImageFix" result="effect1_dropShadow_914_686"/>
<feBlend mode="normal" in="SourceGraphic" in2="effect1_dropShadow_914_686" result="shape"/>
</filter>
</defs>
</svg>
