<svg width="14" height="14" viewBox="0 0 14 14" fill="none" xmlns="http://www.w3.org/2000/svg">
<path d="M7.00002 0.583496C9.73844 0.583496 11.9584 2.80341 11.9584 5.54183C11.9584 7.28341 11.1546 9.04454 9.81098 10.763C9.3341 11.3729 8.81547 11.9416 8.28414 12.4595C8.24037 12.5022 8.19733 12.5438 8.15506 12.5842L7.91126 12.8129L7.68871 13.0134L7.48993 13.1851L7.36853 13.2857C7.1555 13.4593 6.8502 13.4607 6.63561 13.289L6.50868 13.1839L6.31081 13.013L6.08867 12.8128L5.84497 12.5842L5.7159 12.4595C5.18457 11.9416 4.66594 11.3729 4.18906 10.763C2.8454 9.04454 2.04169 7.28341 2.04169 5.54183C2.04169 2.80341 4.2616 0.583496 7.00002 0.583496ZM7.00002 1.75016C4.90593 1.75016 3.20835 3.44774 3.20835 5.54183C3.20835 6.97458 3.90998 8.51201 5.10813 10.0444C5.5505 10.6101 6.0344 11.1407 6.53028 11.6242L6.7652 11.8489C6.8426 11.9215 6.92011 11.9942 7.00002 12.0641L7.23481 11.8489L7.46976 11.6242C7.96564 11.1407 8.44954 10.6101 8.89191 10.0444C10.0901 8.51201 10.7917 6.97458 10.7917 5.54183C10.7917 3.44774 9.09411 1.75016 7.00002 1.75016ZM7.00002 3.2085C8.28868 3.2085 9.33335 4.25317 9.33335 5.54183C9.33335 6.83049 8.28868 7.87516 7.00002 7.87516C5.71136 7.87516 4.66669 6.83049 4.66669 5.54183C4.66669 4.25317 5.71136 3.2085 7.00002 3.2085ZM7.00002 4.37516C6.35569 4.37516 5.83335 4.8975 5.83335 5.54183C5.83335 6.18616 6.35569 6.7085 7.00002 6.7085C7.64435 6.7085 8.16669 6.18616 8.16669 5.54183C8.16669 4.8975 7.64435 4.37516 7.00002 4.37516Z" fill="#E94057"/>
</svg>
