<svg width="40" height="40" viewBox="0 0 40 40" fill="none" xmlns="http://www.w3.org/2000/svg">
<path d="M8.68333 14.35L13.3833 12C14.0333 11.6833 14.65 10.8333 14.7833 10.1167L15.4833 5.86666C15.9333 3.14999 17.9 2.51666 19.8667 4.46666L23.1833 7.78333C23.7333 8.33333 24.8167 8.64999 25.6 8.46666L29.7 7.51666C32.9333 6.76666 34.2 8.49999 32.5 11.35L30.1333 15.3333C29.7 16.05 29.7 17.25 30.1333 17.9667L32.5 21.95C34.1833 24.8 32.9333 26.5333 29.7 25.7833L25.6 24.8333C24.8 24.6833 23.7167 25 23.1667 25.55L19.85 28.8667C17.9 30.8167 15.9333 30.1833 15.4667 27.4667L14.7667 23.2167C14.65 22.5 14.0167 21.65 13.3667 21.3333L8.66666 18.9833C6.13333 17.7 6.13333 15.6333 8.68333 14.35Z" fill="#FFD913"/>
<path d="M9.58334 26.6667L9.58334 36.6667C9.58334 37.35 9.01668 37.9167 8.33334 37.9167C7.65001 37.9167 7.08334 37.35 7.08334 36.6667L7.08334 26.6667C7.08334 25.9834 7.65001 25.4167 8.33334 25.4167C9.01668 25.4167 9.58334 25.9834 9.58334 26.6667Z" fill="#286CC1"/>
<path d="M32.9167 31.6667L32.9167 36.6667C32.9167 37.35 32.35 37.9167 31.6667 37.9167C30.9833 37.9167 30.4167 37.35 30.4167 36.6667L30.4167 31.6667C30.4167 30.9834 30.9833 30.4167 31.6667 30.4167C32.35 30.4167 32.9167 30.9834 32.9167 31.6667Z" fill="#286CC1"/>
<path d="M21.25 35L21.25 36.6667C21.25 37.35 20.6833 37.9167 20 37.9167C19.3167 37.9167 18.75 37.35 18.75 36.6667L18.75 35C18.75 34.3167 19.3167 33.75 20 33.75C20.6833 33.75 21.25 34.3167 21.25 35Z" fill="#286CC1"/>
</svg>
