<svg width="24" height="24" viewBox="0 0 24 24" fill="none" xmlns="http://www.w3.org/2000/svg">
<path d="M13.55 20.16C13.29 20.27 13.01 20.37 12.71 20.47L11.13 20.99C7.16 22.27 5.07 21.2 3.78 17.23L2.5 13.28C1.22 9.30998 2.28 7.20998 6.25 5.92998L7.79 5.41998C7.6 5.89998 7.44 6.44998 7.29 7.06998L6.31 11.26C5.21 15.97 6.82 18.57 11.53 19.69L13.21 20.09C13.32 20.12 13.44 20.14 13.55 20.16Z" fill="white"/>
<path d="M17.17 3.21001L15.5 2.82001C12.16 2.03001 10.17 2.68001 9 5.10001C8.7 5.71001 8.46 6.45001 8.26 7.30001L7.28 11.49C6.3 15.67 7.59 17.73 11.76 18.72L13.44 19.12C14.02 19.26 14.56 19.35 15.06 19.39C18.18 19.69 19.84 18.23 20.68 14.62L21.66 10.44C22.64 6.26001 21.36 4.19001 17.17 3.21001Z" fill="white"/>
</svg>
