<svg width="2019" height="1628" viewBox="0 0 2019 1628" fill="none" xmlns="http://www.w3.org/2000/svg">
<path d="M1627.86 34.835C1375.13 -106.622 1217.78 212.658 1138.16 455.803H880.383C800.76 212.658 643.411 -106.622 390.686 34.835C0 253.509 0 1566.41 0 1566.41C0 1566.41 130.229 1567.8 195.343 1367.4C187.875 1473.37 224.364 1560.2 260.457 1627.86C347.511 1592.97 419.556 1482.38 488.358 1362.36C496.017 1403.36 517.716 1463.94 534.345 1495.11C625.26 1458.67 717.886 1365.56 787.863 1237.18H1230.69C1300.66 1365.56 1393.29 1458.67 1484.22 1495.11C1500.85 1463.94 1522.55 1403.36 1530.21 1362.36C1599.01 1482.38 1671.06 1592.97 1758.11 1627.86C1794.21 1560.2 1830.69 1473.37 1823.23 1367.4C1888.34 1567.79 2018.57 1566.41 2018.57 1566.41C2018.57 1566.41 2018.54 253.509 1627.86 34.835Z" fill="#E03368" fill-opacity="0.1"/>
<path d="M1333.14 260.461C1265.79 260.292 1199.74 279.007 1142.5 314.482C1085.25 349.957 1039.1 400.771 1009.28 461.155C979.456 400.771 933.302 349.957 876.057 314.482C818.811 279.007 752.766 260.292 685.419 260.461C486.682 260.461 325.577 419.889 325.577 616.555C325.577 1079.48 1009.28 1399.96 1009.28 1399.96C1009.28 1399.96 1692.98 1079.48 1692.98 616.555C1692.98 419.889 1531.87 260.461 1333.14 260.461Z" fill="url(#paint0_linear_237_37)"/>
<defs>
<linearGradient id="paint0_linear_237_37" x1="325.577" y1="260.459" x2="1446.4" y2="1605.44" gradientUnits="userSpaceOnUse">
<stop stop-color="#FF84A7"/>
<stop offset="1" stop-color="#E03368"/>
</linearGradient>
</defs>
</svg>
