<svg width="703" height="703" viewBox="0 0 703 703" fill="none" xmlns="http://www.w3.org/2000/svg">
<rect width="703" height="703" rx="351.5" fill="#F93564"/>
<path d="M374.201 471.01C370.393 472.621 366.292 474.085 361.899 475.55L338.758 483.166C280.614 501.912 250.004 486.241 231.111 428.097L212.365 370.246C193.618 312.102 209.142 281.346 267.286 262.6L289.841 255.13C287.058 262.16 284.715 270.215 282.518 279.296L268.165 340.662C252.055 409.644 275.635 447.723 344.616 464.126L369.221 469.985C370.832 470.424 372.59 470.717 374.201 471.01Z" fill="white"/>
<path d="M427.219 222.763L402.76 217.051C353.843 205.481 324.698 215.001 307.562 250.444C303.169 259.378 299.654 270.216 296.725 282.665L282.372 344.031C268.019 405.25 286.912 435.421 347.985 449.92L372.59 455.778C381.085 457.829 388.993 459.147 396.316 459.733C442.011 464.127 466.323 442.744 478.626 389.872L492.979 328.653C507.332 267.433 488.585 237.116 427.219 222.763Z" fill="white"/>
</svg>
