<svg width="18" height="12" viewBox="0 0 18 12" fill="none" xmlns="http://www.w3.org/2000/svg">
<path fill-rule="evenodd" clip-rule="evenodd" d="M7.83997 6.00699L7.83997 6.36099C7.84997 7.76499 7.92996 9.01801 8.07996 9.81201C8.07996 9.82701 8.23997 10.614 8.33997 10.876C8.49997 11.255 8.79002 11.577 9.15002 11.781C9.44002 11.926 9.74006 12 10.0601 12C10.3101 11.988 10.72 11.863 11.01 11.758L11.26 11.664C12.87 11.022 15.96 8.92301 17.15 7.64001L17.24 7.54999L17.62 7.13C17.87 6.809 18 6.415 18 5.992C18 5.613 17.88 5.23401 17.65 4.92801C17.58 4.82901 17.47 4.70199 17.37 4.59399L16.99 4.19699C15.69 2.87599 12.87 1.02199 11.4 0.407989C11.4 0.393989 10.4901 0.0139993 10.0601 -6.94132e-07L10 -6.99382e-07C9.34 -7.57081e-07 8.72003 0.378997 8.40003 0.990996C8.31003 1.159 8.23004 1.48699 8.16004 1.77499L8.05005 2.319C7.92005 3.193 7.83997 4.53499 7.83997 6.00699ZM1.5 4.48199C0.670001 4.48199 5.97884e-07 5.161 5.24537e-07 6C4.51276e-07 6.838 0.67 7.517 1.5 7.517L5.19995 7.19C5.84995 7.19 6.38001 6.658 6.38001 6C6.38001 5.342 5.84995 4.80899 5.19995 4.80899L1.5 4.48199Z" fill="white"/>
</svg>
