<svg width="23" height="15" viewBox="0 0 23 15" fill="none" xmlns="http://www.w3.org/2000/svg">
<path fill-rule="evenodd" clip-rule="evenodd" d="M12.7 7.49126V7.04876C12.6875 5.29376 12.5876 3.72749 12.4001 2.73499C12.4001 2.71624 12.2 1.73249 12.075 1.40499C11.875 0.931241 11.5125 0.528743 11.0625 0.273743C10.7 0.0924927 10.3249 0 9.92493 0C9.61243 0.015 9.09999 0.171255 8.73749 0.302505L8.42499 0.419998C6.41249 1.2225 2.54997 3.84623 1.06247 5.44998L0.950012 5.56252L0.475006 6.08749C0.162506 6.48874 0 6.98124 0 7.50999C0 7.98374 0.149969 8.45749 0.437469 8.83999C0.524969 8.96374 0.662506 9.12251 0.787506 9.25751L1.26251 9.75376C2.88751 11.405 6.41247 13.7225 8.24997 14.49C8.24997 14.5075 9.38743 14.9825 9.92493 15H10C10.825 15 11.6 14.5263 12 13.7613C12.1125 13.5513 12.2125 13.1413 12.3 12.7813L12.4374 12.1012C12.5999 11.0087 12.7 9.33126 12.7 7.49126ZM20.625 9.39751C21.6625 9.39751 22.5 8.54875 22.5 7.5C22.5 6.4525 21.6625 5.60375 20.625 5.60375L16.0001 6.0125C15.1876 6.0125 14.525 6.6775 14.525 7.5C14.525 8.3225 15.1876 8.98876 16.0001 8.98876L20.625 9.39751Z" fill="#e91e63"/>
</svg>
