<svg width="510" height="510" viewBox="0 0 510 510" fill="none" xmlns="http://www.w3.org/2000/svg">
<path fill-rule="evenodd" clip-rule="evenodd" d="M247.554 490.588L211.328 506.814C195.574 513.87 177.03 508.902 166.914 494.913L143.654 462.749C140.613 458.542 135.921 455.833 130.757 455.302L91.272 451.241C74.1 449.475 60.5248 435.9 58.7586 418.728L54.6976 379.243C54.1665 374.079 51.4577 369.387 47.2514 366.346L15.0867 343.086C1.09838 332.97 -3.87049 314.426 3.18598 298.672L19.4116 262.446C21.5335 257.709 21.5335 252.291 19.4116 247.554L3.18598 211.328C-3.87049 195.574 1.09838 177.03 15.0867 166.914L47.2514 143.654C51.4577 140.613 54.1665 135.921 54.6976 130.757L58.7586 91.272C60.5248 74.1 74.1 60.5247 91.272 58.7586L130.757 54.6975C135.921 54.1664 140.613 51.4576 143.654 47.2513L166.914 15.0867C177.03 1.09838 195.574 -3.87049 211.328 3.18599L247.554 19.4115C252.291 21.5334 257.709 21.5334 262.446 19.4115L298.672 3.18599C314.426 -3.87049 332.97 1.09838 343.086 15.0867L366.346 47.2513C369.387 51.4576 374.079 54.1664 379.243 54.6975L418.728 58.7586C435.9 60.5247 449.475 74.1 451.241 91.272L455.302 130.757C455.834 135.921 458.542 140.613 462.749 143.654L494.913 166.914C508.902 177.03 513.871 195.574 506.814 211.328L490.588 247.554C488.466 252.291 488.466 257.709 490.588 262.446L506.814 298.672C513.871 314.426 508.902 332.97 494.913 343.086L462.749 366.346C458.542 369.387 455.834 374.079 455.302 379.243L451.241 418.728C449.475 435.9 435.9 449.475 418.728 451.241L379.243 455.302C374.079 455.833 369.387 458.542 366.346 462.749L343.086 494.913C332.97 508.902 314.426 513.87 298.672 506.814L262.446 490.588C257.709 488.467 252.291 488.467 247.554 490.588ZM156.58 220.541L125.667 251.455L229.444 355.232L388.748 195.928L357.835 165.014L229.444 293.405L156.58 220.541Z" fill="#e91e63"/>
</svg>
